<svg width="93" height="15" viewBox="0 0 93 15" fill="none" xmlns="http://www.w3.org/2000/svg">
<path d="M2.30353 3.51191V7.22924H6.67686V8.92391H2.30353V12.8052H7.22353V14.4999H0.226194V1.81724H7.22353V3.51191H2.30353ZM9.08974 9.43413C9.08974 8.42583 9.29626 7.53295 9.70929 6.75546C10.1345 5.97798 10.7054 5.37665 11.4222 4.95146C12.1511 4.51413 12.9589 4.29546 13.8457 4.29546C14.5017 4.29546 15.1456 4.44124 15.7773 4.7328C16.4211 5.0122 16.9314 5.3888 17.308 5.86257V1.01546H19.4035V14.4999H17.308V12.9875C16.9678 13.4734 16.494 13.8743 15.8866 14.1901C15.2914 14.506 14.605 14.6639 13.8275 14.6639C12.9529 14.6639 12.1511 14.4452 11.4222 14.0079C10.7054 13.5584 10.1345 12.9389 9.70929 12.1492C9.29626 11.3475 9.08974 10.4424 9.08974 9.43413ZM17.308 9.47057C17.308 8.77813 17.1622 8.1768 16.8706 7.66657C16.5912 7.15635 16.2207 6.76761 15.7591 6.50035C15.2974 6.23309 14.7994 6.09946 14.2649 6.09946C13.7303 6.09946 13.2323 6.23309 12.7706 6.50035C12.309 6.75546 11.9324 7.13813 11.6409 7.64835C11.3614 8.14643 11.2217 8.74169 11.2217 9.43413C11.2217 10.1266 11.3614 10.734 11.6409 11.2564C11.9324 11.7787 12.309 12.1796 12.7706 12.459C13.2444 12.7263 13.7425 12.8599 14.2649 12.8599C14.7994 12.8599 15.2974 12.7263 15.7591 12.459C16.2207 12.1918 16.5912 11.803 16.8706 11.2928C17.1622 10.7704 17.308 10.163 17.308 9.47057ZM23.1889 3.12924C22.8123 3.12924 22.4965 3.00169 22.2413 2.74657C21.9862 2.49146 21.8587 2.17561 21.8587 1.79902C21.8587 1.42243 21.9862 1.10658 22.2413 0.851464C22.4965 0.596353 22.8123 0.468797 23.1889 0.468797C23.5533 0.468797 23.8631 0.596353 24.1182 0.851464C24.3733 1.10658 24.5009 1.42243 24.5009 1.79902C24.5009 2.17561 24.3733 2.49146 24.1182 2.74657C23.8631 3.00169 23.5533 3.12924 23.1889 3.12924ZM24.2093 4.45946V14.4999H22.132V4.45946H24.2093ZM29.3603 6.15413V11.7119C29.3603 12.0885 29.4453 12.3618 29.6154 12.5319C29.7976 12.6898 30.1013 12.7688 30.5265 12.7688H31.802V14.4999H30.162C29.2266 14.4999 28.5099 14.2812 28.0118 13.8439C27.5137 13.4066 27.2647 12.6959 27.2647 11.7119V6.15413H26.0803V4.45946H27.2647V1.96302H29.3603V4.45946H31.802V6.15413H29.3603ZM47.3062 5.60746C47.3062 6.25132 47.1543 6.85872 46.8506 7.42969C46.5469 8.00065 46.061 8.46835 45.3928 8.8328C44.7247 9.18509 43.8682 9.36124 42.8235 9.36124H40.5275V14.4999H38.4502V1.83546H42.8235C43.7953 1.83546 44.6153 2.00554 45.2835 2.34569C45.9638 2.67369 46.4679 3.12317 46.7959 3.69413C47.1361 4.26509 47.3062 4.90287 47.3062 5.60746ZM42.8235 7.66657C43.6131 7.66657 44.2023 7.49043 44.591 7.13813C44.9798 6.77369 45.1742 6.26346 45.1742 5.60746C45.1742 4.22257 44.3906 3.53013 42.8235 3.53013H40.5275V7.66657H42.8235ZM51.3647 5.91724C51.6684 5.40702 52.0693 5.0122 52.5674 4.7328C53.0776 4.44124 53.6789 4.29546 54.3714 4.29546V6.44569H53.8429C53.029 6.44569 52.4095 6.6522 51.9843 7.06524C51.5712 7.47828 51.3647 8.19502 51.3647 9.21546V14.4999H49.2874V4.45946H51.3647V5.91724ZM60.636 14.6639C59.6884 14.6639 58.832 14.4513 58.0667 14.0261C57.3013 13.5888 56.7 12.9814 56.2627 12.2039C55.8253 11.4143 55.6067 10.5032 55.6067 9.47057C55.6067 8.45013 55.8314 7.54509 56.2809 6.75546C56.7304 5.96583 57.3438 5.35843 58.1213 4.93324C58.8988 4.50806 59.7674 4.29546 60.7271 4.29546C61.6868 4.29546 62.5554 4.50806 63.3329 4.93324C64.1104 5.35843 64.7238 5.96583 65.1733 6.75546C65.6228 7.54509 65.8475 8.45013 65.8475 9.47057C65.8475 10.491 65.6167 11.3961 65.1551 12.1857C64.6935 12.9753 64.0618 13.5888 63.26 14.0261C62.4704 14.4513 61.5957 14.6639 60.636 14.6639ZM60.636 12.8599C61.1705 12.8599 61.6686 12.7324 62.1302 12.4772C62.604 12.2221 62.9867 11.8395 63.2782 11.3292C63.5698 10.819 63.7155 10.1995 63.7155 9.47057C63.7155 8.74169 63.5758 8.1282 63.2964 7.63013C63.017 7.11991 62.6465 6.73724 62.1849 6.48213C61.7233 6.22702 61.2252 6.09946 60.6907 6.09946C60.1561 6.09946 59.6581 6.22702 59.1964 6.48213C58.747 6.73724 58.3886 7.11991 58.1213 7.63013C57.8541 8.1282 57.7204 8.74169 57.7204 9.47057C57.7204 10.5518 57.9938 11.39 58.5404 11.9852C59.0993 12.5684 59.7978 12.8599 60.636 12.8599ZM72.1104 6.15413H70.2518V14.4999H68.1562V6.15413H66.9718V4.45946H68.1562V3.7488C68.1562 2.59472 68.4599 1.7565 69.0673 1.23413C69.6869 0.699612 70.6527 0.432353 71.9647 0.432353V2.16346C71.333 2.16346 70.8896 2.28495 70.6344 2.52791C70.3793 2.75872 70.2518 3.16569 70.2518 3.7488V4.45946H72.1104V6.15413ZM75.0083 3.12924C74.6317 3.12924 74.3159 3.00169 74.0608 2.74657C73.8057 2.49146 73.6781 2.17561 73.6781 1.79902C73.6781 1.42243 73.8057 1.10658 74.0608 0.851464C74.3159 0.596353 74.6317 0.468797 75.0083 0.468797C75.3728 0.468797 75.6826 0.596353 75.9377 0.851464C76.1928 1.10658 76.3203 1.42243 76.3203 1.79902C76.3203 2.17561 76.1928 2.49146 75.9377 2.74657C75.6826 3.00169 75.3728 3.12924 75.0083 3.12924ZM76.0288 4.45946V14.4999H73.9515V4.45946H76.0288ZM80.8335 1.01546V14.4999H78.7561V1.01546H80.8335ZM92.763 9.23369C92.763 9.61028 92.7388 9.95043 92.6902 10.2541H85.0186C85.0793 11.0559 85.377 11.6998 85.9115 12.1857C86.446 12.6716 87.102 12.9146 87.8795 12.9146C88.9971 12.9146 89.7868 12.4469 90.2484 11.5115H92.4897C92.186 12.4347 91.6333 13.194 90.8315 13.7892C90.0419 14.3724 89.0579 14.6639 87.8795 14.6639C86.9198 14.6639 86.0573 14.4513 85.2919 14.0261C84.5388 13.5888 83.9435 12.9814 83.5062 12.2039C83.081 11.4143 82.8684 10.5032 82.8684 9.47057C82.8684 8.43798 83.0749 7.53295 83.4879 6.75546C83.9131 5.96583 84.5023 5.35843 85.2555 4.93324C86.0208 4.50806 86.8955 4.29546 87.8795 4.29546C88.827 4.29546 89.6713 4.50198 90.4124 4.91502C91.1534 5.32806 91.7305 5.91117 92.1435 6.66435C92.5565 7.40539 92.763 8.26183 92.763 9.23369ZM90.5946 8.57769C90.5825 7.81235 90.3091 7.19887 89.7746 6.73724C89.2401 6.27561 88.578 6.0448 87.7884 6.0448C87.0716 6.0448 86.4582 6.27561 85.9479 6.73724C85.4377 7.18672 85.134 7.8002 85.0368 8.57769H90.5946Z" fill="#212121"/>
</svg>
