<svg width="276" height="48" viewBox="0 0 276 48" fill="none" xmlns="http://www.w3.org/2000/svg">
<rect x="0.5" y="0.5" width="275" height="47" rx="7.5" stroke="#212121" stroke-opacity="0.4"/>
<path d="M19.152 24.288C19.7493 24.3947 20.256 24.7093 20.672 25.232C21.088 25.7547 21.296 26.3467 21.296 27.008C21.296 27.5733 21.1467 28.0853 20.848 28.544C20.56 28.992 20.1387 29.3493 19.584 29.616C19.0293 29.872 18.384 30 17.648 30H13.2V18.88H17.44C18.1973 18.88 18.848 19.008 19.392 19.264C19.936 19.52 20.3467 19.8667 20.624 20.304C20.9013 20.7307 21.04 21.2107 21.04 21.744C21.04 22.384 20.8693 22.9173 20.528 23.344C20.1867 23.7707 19.728 24.0853 19.152 24.288ZM15.024 23.552H17.28C17.8773 23.552 18.3413 23.4187 18.672 23.152C19.0133 22.8747 19.184 22.48 19.184 21.968C19.184 21.4667 19.0133 21.0773 18.672 20.8C18.3413 20.512 17.8773 20.368 17.28 20.368H15.024V23.552ZM17.488 28.512C18.1067 28.512 18.592 28.3627 18.944 28.064C19.296 27.7653 19.472 27.3493 19.472 26.816C19.472 26.272 19.2853 25.84 18.912 25.52C18.5387 25.2 18.0427 25.04 17.424 25.04H15.024V28.512H17.488ZM31.3581 25.376C31.3581 25.7067 31.3368 26.0053 31.2941 26.272H24.5581C24.6115 26.976 24.8728 27.5413 25.3421 27.968C25.8115 28.3947 26.3875 28.608 27.0701 28.608C28.0515 28.608 28.7448 28.1973 29.1501 27.376H31.1181C30.8515 28.1867 30.3661 28.8533 29.6621 29.376C28.9688 29.888 28.1048 30.144 27.0701 30.144C26.2275 30.144 25.4701 29.9573 24.7981 29.584C24.1368 29.2 23.6141 28.6667 23.2301 27.984C22.8568 27.2907 22.6701 26.4907 22.6701 25.584C22.6701 24.6773 22.8515 23.8827 23.2141 23.2C23.5875 22.5067 24.1048 21.9733 24.7661 21.6C25.4381 21.2267 26.2061 21.04 27.0701 21.04C27.9021 21.04 28.6435 21.2213 29.2941 21.584C29.9448 21.9467 30.4515 22.4587 30.8141 23.12C31.1768 23.7707 31.3581 24.5227 31.3581 25.376ZM29.4541 24.8C29.4435 24.128 29.2035 23.5893 28.7341 23.184C28.2648 22.7787 27.6835 22.576 26.9901 22.576C26.3608 22.576 25.8221 22.7787 25.3741 23.184C24.9261 23.5787 24.6595 24.1173 24.5741 24.8H29.4541ZM36.3531 30.144C35.6598 30.144 35.0358 30.0213 34.4811 29.776C33.9371 29.52 33.5051 29.1787 33.1851 28.752C32.8651 28.3147 32.6945 27.8293 32.6731 27.296H34.5611C34.5931 27.6693 34.7691 27.984 35.0891 28.24C35.4198 28.4853 35.8305 28.608 36.3211 28.608C36.8331 28.608 37.2278 28.512 37.5051 28.32C37.7931 28.1173 37.9371 27.8613 37.9371 27.552C37.9371 27.2213 37.7771 26.976 37.4571 26.816C37.1478 26.656 36.6518 26.48 35.9691 26.288C35.3078 26.1067 34.7691 25.9307 34.3531 25.76C33.9371 25.5893 33.5745 25.328 33.2651 24.976C32.9665 24.624 32.8171 24.16 32.8171 23.584C32.8171 23.1147 32.9558 22.688 33.2331 22.304C33.5105 21.9093 33.9051 21.6 34.4171 21.376C34.9398 21.152 35.5371 21.04 36.2091 21.04C37.2118 21.04 38.0171 21.296 38.6251 21.808C39.2438 22.3093 39.5745 22.9973 39.6171 23.872H37.7931C37.7611 23.4773 37.6011 23.1627 37.3131 22.928C37.0251 22.6933 36.6358 22.576 36.1451 22.576C35.6651 22.576 35.2971 22.6667 35.0411 22.848C34.7851 23.0293 34.6571 23.2693 34.6571 23.568C34.6571 23.8027 34.7425 24 34.9131 24.16C35.0838 24.32 35.2918 24.448 35.5371 24.544C35.7825 24.6293 36.1451 24.7413 36.6251 24.88C37.2651 25.0507 37.7878 25.2267 38.1931 25.408C38.6091 25.5787 38.9665 25.8347 39.2651 26.176C39.5638 26.5173 39.7185 26.9707 39.7291 27.536C39.7291 28.0373 39.5905 28.4853 39.3131 28.88C39.0358 29.2747 38.6411 29.584 38.1291 29.808C37.6278 30.032 37.0358 30.144 36.3531 30.144ZM44.9 30.144C44.2067 30.144 43.5827 30.0213 43.028 29.776C42.484 29.52 42.052 29.1787 41.732 28.752C41.412 28.3147 41.2413 27.8293 41.22 27.296H43.108C43.14 27.6693 43.316 27.984 43.636 28.24C43.9667 28.4853 44.3773 28.608 44.868 28.608C45.38 28.608 45.7747 28.512 46.052 28.32C46.34 28.1173 46.484 27.8613 46.484 27.552C46.484 27.2213 46.324 26.976 46.004 26.816C45.6947 26.656 45.1987 26.48 44.516 26.288C43.8547 26.1067 43.316 25.9307 42.9 25.76C42.484 25.5893 42.1213 25.328 41.812 24.976C41.5133 24.624 41.364 24.16 41.364 23.584C41.364 23.1147 41.5027 22.688 41.78 22.304C42.0573 21.9093 42.452 21.6 42.964 21.376C43.4867 21.152 44.084 21.04 44.756 21.04C45.7587 21.04 46.564 21.296 47.172 21.808C47.7907 22.3093 48.1213 22.9973 48.164 23.872H46.34C46.308 23.4773 46.148 23.1627 45.86 22.928C45.572 22.6933 45.1827 22.576 44.692 22.576C44.212 22.576 43.844 22.6667 43.588 22.848C43.332 23.0293 43.204 23.2693 43.204 23.568C43.204 23.8027 43.2893 24 43.46 24.16C43.6307 24.32 43.8387 24.448 44.084 24.544C44.3293 24.6293 44.692 24.7413 45.172 24.88C45.812 25.0507 46.3347 25.2267 46.74 25.408C47.156 25.5787 47.5133 25.8347 47.812 26.176C48.1107 26.5173 48.2653 26.9707 48.276 27.536C48.276 28.0373 48.1373 28.4853 47.86 28.88C47.5827 29.2747 47.188 29.584 46.676 29.808C46.1747 30.032 45.5827 30.144 44.9 30.144ZM51.1749 20.016C50.8442 20.016 50.5669 19.904 50.3429 19.68C50.1189 19.456 50.0069 19.1787 50.0069 18.848C50.0069 18.5173 50.1189 18.24 50.3429 18.016C50.5669 17.792 50.8442 17.68 51.1749 17.68C51.4949 17.68 51.7669 17.792 51.9909 18.016C52.2149 18.24 52.3269 18.5173 52.3269 18.848C52.3269 19.1787 52.2149 19.456 51.9909 19.68C51.7669 19.904 51.4949 20.016 51.1749 20.016ZM52.0709 21.184V30H50.2469V21.184H52.0709ZM62.5456 25.376C62.5456 25.7067 62.5243 26.0053 62.4816 26.272H55.7456C55.799 26.976 56.0603 27.5413 56.5296 27.968C56.999 28.3947 57.575 28.608 58.2576 28.608C59.239 28.608 59.9323 28.1973 60.3376 27.376H62.3056C62.039 28.1867 61.5536 28.8533 60.8496 29.376C60.1563 29.888 59.2923 30.144 58.2576 30.144C57.415 30.144 56.6576 29.9573 55.9856 29.584C55.3243 29.2 54.8016 28.6667 54.4176 27.984C54.0443 27.2907 53.8576 26.4907 53.8576 25.584C53.8576 24.6773 54.039 23.8827 54.4016 23.2C54.775 22.5067 55.2923 21.9733 55.9536 21.6C56.6256 21.2267 57.3936 21.04 58.2576 21.04C59.0896 21.04 59.831 21.2213 60.4816 21.584C61.1323 21.9467 61.639 22.4587 62.0016 23.12C62.3643 23.7707 62.5456 24.5227 62.5456 25.376ZM60.6416 24.8C60.631 24.128 60.391 23.5893 59.9216 23.184C59.4523 22.7787 58.871 22.576 58.1776 22.576C57.5483 22.576 57.0096 22.7787 56.5616 23.184C56.1136 23.5787 55.847 24.1173 55.7616 24.8H60.6416ZM67.8889 24.416C67.8889 23.328 68.1395 22.352 68.6409 21.488C69.1529 20.624 69.8409 19.952 70.7049 19.472C71.5795 18.9813 72.5342 18.736 73.5689 18.736C74.7529 18.736 75.8035 19.0293 76.7209 19.616C77.6489 20.192 78.3209 21.0133 78.7369 22.08H76.5449C76.2569 21.4933 75.8569 21.056 75.3449 20.768C74.8329 20.48 74.2409 20.336 73.5689 20.336C72.8329 20.336 72.1769 20.5013 71.6009 20.832C71.0249 21.1627 70.5715 21.6373 70.2409 22.256C69.9209 22.8747 69.7609 23.5947 69.7609 24.416C69.7609 25.2373 69.9209 25.9573 70.2409 26.576C70.5715 27.1947 71.0249 27.6747 71.6009 28.016C72.1769 28.3467 72.8329 28.512 73.5689 28.512C74.2409 28.512 74.8329 28.368 75.3449 28.08C75.8569 27.792 76.2569 27.3547 76.5449 26.768H78.7369C78.3209 27.8347 77.6489 28.656 76.7209 29.232C75.8035 29.808 74.7529 30.096 73.5689 30.096C72.5235 30.096 71.5689 29.856 70.7049 29.376C69.8409 28.8853 69.1529 28.208 68.6409 27.344C68.1395 26.48 67.8889 25.504 67.8889 24.416ZM84.6959 30.144C83.8639 30.144 83.1119 29.9573 82.4399 29.584C81.7679 29.2 81.2399 28.6667 80.8559 27.984C80.4719 27.2907 80.2799 26.4907 80.2799 25.584C80.2799 24.688 80.4772 23.8933 80.8719 23.2C81.2665 22.5067 81.8052 21.9733 82.4879 21.6C83.1705 21.2267 83.9332 21.04 84.7759 21.04C85.6185 21.04 86.3812 21.2267 87.0639 21.6C87.7465 21.9733 88.2852 22.5067 88.6799 23.2C89.0745 23.8933 89.2719 24.688 89.2719 25.584C89.2719 26.48 89.0692 27.2747 88.6639 27.968C88.2585 28.6613 87.7039 29.2 86.9999 29.584C86.3065 29.9573 85.5385 30.144 84.6959 30.144ZM84.6959 28.56C85.1652 28.56 85.6025 28.448 86.0079 28.224C86.4239 28 86.7599 27.664 87.0159 27.216C87.2719 26.768 87.3999 26.224 87.3999 25.584C87.3999 24.944 87.2772 24.4053 87.0319 23.968C86.7865 23.52 86.4612 23.184 86.0559 22.96C85.6505 22.736 85.2132 22.624 84.7439 22.624C84.2745 22.624 83.8372 22.736 83.4319 22.96C83.0372 23.184 82.7225 23.52 82.4879 23.968C82.2532 24.4053 82.1359 24.944 82.1359 25.584C82.1359 26.5333 82.3759 27.2693 82.8559 27.792C83.3465 28.304 83.9599 28.56 84.6959 28.56ZM92.899 18.16V30H91.075V18.16H92.899ZM103.374 25.376C103.374 25.7067 103.352 26.0053 103.31 26.272H96.5738C96.6271 26.976 96.8884 27.5413 97.3578 27.968C97.8271 28.3947 98.4031 28.608 99.0858 28.608C100.067 28.608 100.76 28.1973 101.166 27.376H103.134C102.867 28.1867 102.382 28.8533 101.678 29.376C100.984 29.888 100.12 30.144 99.0858 30.144C98.2431 30.144 97.4858 29.9573 96.8138 29.584C96.1524 29.2 95.6298 28.6667 95.2458 27.984C94.8724 27.2907 94.6858 26.4907 94.6858 25.584C94.6858 24.6773 94.8671 23.8827 95.2298 23.2C95.6031 22.5067 96.1204 21.9733 96.7818 21.6C97.4538 21.2267 98.2218 21.04 99.0858 21.04C99.9178 21.04 100.659 21.2213 101.31 21.584C101.96 21.9467 102.467 22.4587 102.83 23.12C103.192 23.7707 103.374 24.5227 103.374 25.376ZM101.47 24.8C101.459 24.128 101.219 23.5893 100.75 23.184C100.28 22.7787 99.6991 22.576 99.0058 22.576C98.3764 22.576 97.8378 22.7787 97.3898 23.184C96.9418 23.5787 96.6751 24.1173 96.5898 24.8H101.47ZM115.841 21.04C116.534 21.04 117.153 21.184 117.697 21.472C118.251 21.76 118.683 22.1867 118.993 22.752C119.313 23.3173 119.473 24 119.473 24.8V30H117.665V25.072C117.665 24.2827 117.467 23.68 117.073 23.264C116.678 22.8373 116.139 22.624 115.457 22.624C114.774 22.624 114.23 22.8373 113.825 23.264C113.43 23.68 113.233 24.2827 113.233 25.072V30H111.425V25.072C111.425 24.2827 111.227 23.68 110.833 23.264C110.438 22.8373 109.899 22.624 109.217 22.624C108.534 22.624 107.99 22.8373 107.585 23.264C107.19 23.68 106.993 24.2827 106.993 25.072V30H105.169V21.184H106.993V22.192C107.291 21.8293 107.67 21.5467 108.129 21.344C108.587 21.1413 109.078 21.04 109.601 21.04C110.305 21.04 110.934 21.1893 111.489 21.488C112.043 21.7867 112.47 22.2187 112.769 22.784C113.035 22.2507 113.451 21.8293 114.017 21.52C114.582 21.2 115.19 21.04 115.841 21.04ZM121.186 25.552C121.186 24.6667 121.367 23.8827 121.73 23.2C122.103 22.5173 122.604 21.9893 123.234 21.616C123.874 21.232 124.578 21.04 125.346 21.04C126.039 21.04 126.642 21.1787 127.154 21.456C127.676 21.7227 128.092 22.0587 128.402 22.464V21.184H130.242V30H128.402V28.688C128.092 29.104 127.671 29.4507 127.138 29.728C126.604 30.0053 125.996 30.144 125.314 30.144C124.556 30.144 123.863 29.952 123.234 29.568C122.604 29.1733 122.103 28.6293 121.73 27.936C121.367 27.232 121.186 26.4373 121.186 25.552ZM128.402 25.584C128.402 24.976 128.274 24.448 128.018 24C127.772 23.552 127.447 23.2107 127.042 22.976C126.636 22.7413 126.199 22.624 125.73 22.624C125.26 22.624 124.823 22.7413 124.418 22.976C124.012 23.2 123.682 23.536 123.426 23.984C123.18 24.4213 123.058 24.944 123.058 25.552C123.058 26.16 123.18 26.6933 123.426 27.152C123.682 27.6107 124.012 27.9627 124.418 28.208C124.834 28.4427 125.271 28.56 125.73 28.56C126.199 28.56 126.636 28.4427 127.042 28.208C127.447 27.9733 127.772 27.632 128.018 27.184C128.274 26.7253 128.402 26.192 128.402 25.584ZM137.086 21.04C137.779 21.04 138.398 21.184 138.942 21.472C139.496 21.76 139.928 22.1867 140.238 22.752C140.547 23.3173 140.702 24 140.702 24.8V30H138.894V25.072C138.894 24.2827 138.696 23.68 138.302 23.264C137.907 22.8373 137.368 22.624 136.686 22.624C136.003 22.624 135.459 22.8373 135.054 23.264C134.659 23.68 134.462 24.2827 134.462 25.072V30H132.638V21.184H134.462V22.192C134.76 21.8293 135.139 21.5467 135.598 21.344C136.067 21.1413 136.563 21.04 137.086 21.04Z" fill="#212121"/>
</svg>
