<svg width="83" height="14" viewBox="0 0 83 14" fill="none" xmlns="http://www.w3.org/2000/svg">
<path d="M11.2161 12.9999H9.13874L2.88852 3.54257V12.9999H0.811186V0.317242H2.88852L9.13874 9.75635V0.317242H11.2161V12.9999ZM23.1462 7.73369C23.1462 8.11028 23.1219 8.45043 23.0733 8.75413H15.4018C15.4625 9.55591 15.7601 10.1998 16.2947 10.6857C16.8292 11.1716 17.4852 11.4146 18.2627 11.4146C19.3803 11.4146 20.1699 10.9469 20.6316 10.0115H22.8729C22.5692 10.9347 22.0164 11.694 21.2147 12.2892C20.425 12.8724 19.441 13.1639 18.2627 13.1639C17.303 13.1639 16.4404 12.9513 15.6751 12.5261C14.9219 12.0888 14.3267 11.4814 13.8893 10.7039C13.4641 9.91428 13.2516 9.00317 13.2516 7.97057C13.2516 6.93798 13.4581 6.03295 13.8711 5.25546C14.2963 4.46583 14.8855 3.85843 15.6387 3.43324C16.404 3.00806 17.2787 2.79546 18.2627 2.79546C19.2102 2.79546 20.0545 3.00198 20.7956 3.41502C21.5366 3.82806 22.1136 4.41117 22.5267 5.16435C22.9397 5.90539 23.1462 6.76183 23.1462 7.73369ZM20.9778 7.07769C20.9656 6.31235 20.6923 5.69887 20.1578 5.23724C19.6233 4.77561 18.9612 4.5448 18.1716 4.5448C17.4548 4.5448 16.8413 4.77561 16.3311 5.23724C15.8209 5.68672 15.5172 6.3002 15.42 7.07769H20.9778ZM38.675 2.95946L35.559 12.9999H33.3723L31.3496 5.58346L29.327 12.9999H27.1403L24.0061 2.95946H26.1199L28.2154 11.0319L30.3474 2.95946H32.5159L34.5567 10.9955L36.6341 2.95946H38.675ZM53.8169 4.10746C53.8169 4.75132 53.6651 5.35872 53.3614 5.92969C53.0577 6.50065 52.5717 6.96835 51.9036 7.3328C51.2354 7.68509 50.379 7.86124 49.3343 7.86124H47.0383V12.9999H44.9609V0.335464H49.3343C50.3061 0.335464 51.1261 0.505538 51.7943 0.845686C52.4746 1.17369 52.9787 1.62317 53.3067 2.19413C53.6469 2.76509 53.8169 3.40287 53.8169 4.10746ZM49.3343 6.16657C50.1239 6.16657 50.7131 5.99043 51.1018 5.63813C51.4906 5.27369 51.6849 4.76346 51.6849 4.10746C51.6849 2.72257 50.9014 2.03013 49.3343 2.03013H47.0383V6.16657H49.3343ZM60.1533 13.1639C59.2057 13.1639 58.3493 12.9513 57.5839 12.5261C56.8186 12.0888 56.2173 11.4814 55.7799 10.7039C55.3426 9.91428 55.1239 9.00317 55.1239 7.97057C55.1239 6.95013 55.3487 6.04509 55.7982 5.25546C56.2476 4.46583 56.8611 3.85843 57.6386 3.43324C58.4161 3.00806 59.2847 2.79546 60.2444 2.79546C61.2041 2.79546 62.0727 3.00806 62.8502 3.43324C63.6276 3.85843 64.2411 4.46583 64.6906 5.25546C65.1401 6.04509 65.3648 6.95013 65.3648 7.97057C65.3648 8.99102 65.134 9.89606 64.6724 10.6857C64.2108 11.4753 63.5791 12.0888 62.7773 12.5261C61.9876 12.9513 61.113 13.1639 60.1533 13.1639ZM60.1533 11.3599C60.6878 11.3599 61.1859 11.2324 61.6475 10.9772C62.1213 10.7221 62.5039 10.3395 62.7955 9.82924C63.0871 9.31902 63.2328 8.69946 63.2328 7.97057C63.2328 7.24169 63.0931 6.6282 62.8137 6.13013C62.5343 5.61991 62.1638 5.23724 61.7022 4.98213C61.2405 4.72702 60.7425 4.59946 60.2079 4.59946C59.6734 4.59946 59.1753 4.72702 58.7137 4.98213C58.2642 5.23724 57.9059 5.61991 57.6386 6.13013C57.3713 6.6282 57.2377 7.24169 57.2377 7.97057C57.2377 9.05176 57.5111 9.88998 58.0577 10.4852C58.6165 11.0684 59.3151 11.3599 60.1533 11.3599ZM71.0628 13.1639C70.2732 13.1639 69.5625 13.0242 68.9308 12.7448C68.3113 12.4532 67.8193 12.0645 67.4548 11.5786C67.0904 11.0805 66.896 10.5278 66.8717 9.92035H69.0219C69.0584 10.3455 69.2588 10.7039 69.6233 10.9955C69.9999 11.2749 70.4676 11.4146 71.0264 11.4146C71.6095 11.4146 72.059 11.3052 72.3748 11.0866C72.7028 10.8558 72.8668 10.5642 72.8668 10.2119C72.8668 9.83532 72.6846 9.55591 72.3202 9.37369C71.9679 9.19146 71.403 8.99102 70.6255 8.77235C69.8723 8.56583 69.2588 8.36539 68.7851 8.17102C68.3113 7.97665 67.8982 7.67902 67.5459 7.27813C67.2058 6.87724 67.0357 6.3488 67.0357 5.6928C67.0357 5.15828 67.1936 4.67235 67.5095 4.23502C67.8253 3.78554 68.2748 3.43324 68.8579 3.17813C69.4532 2.92302 70.1335 2.79546 70.8988 2.79546C72.0408 2.79546 72.9579 3.08702 73.6504 3.67013C74.355 4.24109 74.7316 5.02465 74.7802 6.0208H72.7028C72.6664 5.57132 72.4842 5.21295 72.1562 4.94569C71.8282 4.67843 71.3848 4.5448 70.8259 4.5448C70.2793 4.5448 69.8602 4.64806 69.5686 4.85458C69.2771 5.06109 69.1313 5.33443 69.1313 5.67458C69.1313 5.94183 69.2285 6.16658 69.4228 6.3488C69.6172 6.53102 69.8541 6.6768 70.1335 6.78613C70.4129 6.88332 70.8259 7.01087 71.3726 7.1688C72.1015 7.36317 72.6968 7.56361 73.1584 7.77013C73.6322 7.9645 74.0391 8.25606 74.3793 8.6448C74.7194 9.03354 74.8956 9.54983 74.9077 10.1937C74.9077 10.7646 74.7498 11.2749 74.4339 11.7244C74.1181 12.1738 73.6686 12.5261 73.0855 12.7812C72.5145 13.0364 71.8403 13.1639 71.0628 13.1639ZM79.5759 4.65413V10.2119C79.5759 10.5885 79.6609 10.8618 79.831 11.0319C80.0132 11.1898 80.3169 11.2688 80.7421 11.2688H82.0177V12.9999H80.3777C79.4423 12.9999 78.7255 12.7812 78.2274 12.3439C77.7294 11.9066 77.4803 11.1959 77.4803 10.2119V4.65413H76.2959V2.95946H77.4803V0.46302H79.5759V2.95946H82.0177V4.65413H79.5759Z" fill="#FCF5E5"/>
</svg>
